<svg width="109" height="32" viewBox="0 0 109 32" fill="none" xmlns="http://www.w3.org/2000/svg">
<g clip-path="url(#clip0_18_7)">
<path d="M27.2844 24.476V9.42947C27.2844 4.23876 22.6515 0.0500488 16.9508 0.0500488C11.2501 0.0500488 6.61719 4.25518 6.61719 9.42947V24.476H27.3025H27.2844Z" fill="#BA8148"/>
<mask id="mask0_18_7" style="mask-type:luminance" maskUnits="userSpaceOnUse" x="6" y="0" width="22" height="25">
<path d="M27.2844 24.476V9.42947C27.2844 4.25518 22.6515 0.0500488 16.9508 0.0500488C11.2501 0.0500488 6.61719 4.25518 6.61719 9.42947V24.476H27.3025H27.2844Z" fill="white"/>
</mask>
<g mask="url(#mask0_18_7)">
<path d="M16.9508 -2.59473V19.7779" stroke="#EBE4DE" stroke-width="2" stroke-miterlimit="10" stroke-linecap="round"/>
<path d="M11.8112 -2.18408L16.0821 19.8436" stroke="#EBE4DE" stroke-width="2" stroke-miterlimit="10" stroke-linecap="round"/>
<path d="M6.81628 -0.968506L15.2497 20.0572" stroke="#EBE4DE" stroke-width="2" stroke-miterlimit="10" stroke-linecap="round"/>
<path d="M2.14709 1.00256L14.4714 20.3856" stroke="#EBE4DE" stroke-width="2" stroke-miterlimit="10" stroke-linecap="round"/>
<path d="M-2.08765 3.69653L13.7657 20.8292" stroke="#EBE4DE" stroke-width="2" stroke-miterlimit="10" stroke-linecap="round"/>
<path d="M-5.72522 6.99817L13.1504 21.3876" stroke="#EBE4DE" stroke-width="2" stroke-miterlimit="10" stroke-linecap="round"/>
<path d="M-8.69324 10.842L12.6617 22.0284" stroke="#EBE4DE" stroke-width="2" stroke-miterlimit="10" stroke-linecap="round"/>
<path d="M-10.8649 15.08L12.2998 22.7346" stroke="#EBE4DE" stroke-width="2" stroke-miterlimit="10" stroke-linecap="round"/>
<path d="M-12.2041 19.6136L12.0645 23.4903" stroke="#EBE4DE" stroke-width="2" stroke-miterlimit="10" stroke-linecap="round"/>
<path d="M46.1057 19.6136L21.8372 23.5067" stroke="#EBE4DE" stroke-width="2" stroke-miterlimit="10" stroke-linecap="round"/>
<path d="M44.7664 15.08L21.6199 22.7346" stroke="#EBE4DE" stroke-width="2" stroke-miterlimit="10" stroke-linecap="round"/>
<path d="M42.5948 10.842L21.2399 22.0284" stroke="#EBE4DE" stroke-width="2" stroke-miterlimit="10" stroke-linecap="round"/>
<path d="M39.6268 6.99817L20.7512 21.3876" stroke="#EBE4DE" stroke-width="2" stroke-miterlimit="10" stroke-linecap="round"/>
<path d="M35.9893 3.69653L20.136 20.8292" stroke="#EBE4DE" stroke-width="2" stroke-miterlimit="10" stroke-linecap="round"/>
<path d="M31.7545 1.00256L19.4302 20.3856" stroke="#EBE4DE" stroke-width="2" stroke-miterlimit="10" stroke-linecap="round"/>
<path d="M27.0854 -0.968506L18.652 20.0572" stroke="#EBE4DE" stroke-width="2" stroke-miterlimit="10" stroke-linecap="round"/>
<path d="M22.0904 -2.18408L17.8195 19.8436" stroke="#EBE4DE" stroke-width="2" stroke-miterlimit="10" stroke-linecap="round"/>
</g>
<path d="M19.8102 24.4759C19.8102 24.4102 19.8102 24.3445 19.8102 24.2788C19.8102 22.8497 18.5253 21.6835 16.9508 21.6835C15.3763 21.6835 14.0914 22.8497 14.0914 24.2788C14.0914 25.7079 14.0914 24.4102 14.0914 24.4759H19.7921H19.8102Z" fill="#EBE4DE"/>
<path d="M21.7466 24.476C21.7466 24.3774 21.7647 24.2625 21.7647 24.1475C21.7647 21.7328 19.6111 19.7781 16.9507 19.7781C14.2904 19.7781 12.1368 21.7328 12.1368 24.1475C12.1368 26.5621 12.1368 24.361 12.1549 24.476" stroke="#EBE4DE" stroke-width="2" stroke-miterlimit="10" stroke-linecap="round"/>
<path d="M1.54993 24.476H32.3517" stroke="#BA8148" stroke-width="3" stroke-miterlimit="10" stroke-linecap="round"/>
<path d="M1.54993 31.95H32.3517" stroke="#BA8148" stroke-width="3" stroke-miterlimit="10" stroke-linecap="round"/>
<path d="M17.6021 3.30247L16.9506 1.56128L16.2991 3.30247L15.6476 5.04366L16.2991 6.76842L16.9506 8.50961L17.6021 6.76842L18.2717 5.04366L17.6021 3.30247Z" fill="#EBE4DE"/>
<path d="M23.3753 9.57731L23.4115 8.23035L22.4886 9.26521L21.5656 10.3001L21.5113 11.6142L21.4751 12.9447L22.4162 11.9263L23.3391 10.9078L23.3753 9.57731Z" fill="#EBE4DE"/>
<path d="M24.4431 18.9566L24.9317 18.2174L24.045 18.5131L23.1582 18.8252L22.6696 19.5479L22.1628 20.2707L23.0496 19.975L23.9364 19.6794L24.4431 18.9566Z" fill="#EBE4DE"/>
<path d="M10.5259 9.57718L10.4897 8.23022L11.4127 9.26508L12.3538 10.2999L12.39 11.614L12.4081 12.9446L11.4851 11.9261L10.5621 10.9077L10.5259 9.57718Z" fill="#EBE4DE"/>
<path d="M9.45824 18.9566L8.9696 18.2174L9.85638 18.5131L10.7431 18.8252L11.2318 19.5479L11.7385 20.2707L10.8517 19.975L9.96496 19.6794L9.45824 18.9566Z" fill="#EBE4DE"/>
<path d="M17.4032 9.44606C17.4032 9.67603 17.2041 9.85672 16.9507 9.85672C16.6974 9.85672 16.4983 9.67603 16.4983 9.44606C16.4983 9.21609 16.6974 9.0354 16.9507 9.0354C17.2041 9.0354 17.4032 9.21609 17.4032 9.44606Z" fill="#EBE4DE"/>
<path d="M17.4032 10.7765C17.4032 11.0065 17.2041 11.1872 16.9507 11.1872C16.6974 11.1872 16.4983 11.0065 16.4983 10.7765C16.4983 10.5465 16.6974 10.3658 16.9507 10.3658C17.2041 10.3658 17.4032 10.5465 17.4032 10.7765Z" fill="#EBE4DE"/>
<path d="M20.9321 15.5075C20.9321 15.7374 20.733 15.9181 20.4797 15.9181C20.2263 15.9181 20.0272 15.7374 20.0272 15.5075C20.0272 15.2775 20.2263 15.0968 20.4797 15.0968C20.733 15.0968 20.9321 15.2775 20.9321 15.5075Z" fill="#EBE4DE"/>
<path d="M24.9135 5.55311C24.9135 5.78308 24.7145 5.96377 24.4611 5.96377C24.2077 5.96377 24.0087 5.78308 24.0087 5.55311C24.0087 5.32315 24.2077 5.14246 24.4611 5.14246C24.7145 5.14246 24.9135 5.32315 24.9135 5.55311Z" fill="#EBE4DE"/>
<path d="M25.3117 11.8937C25.3117 12.1237 25.1127 12.3043 24.8593 12.3043C24.6059 12.3043 24.4069 12.1237 24.4069 11.8937C24.4069 11.6637 24.6059 11.483 24.8593 11.483C25.1127 11.483 25.3117 11.6637 25.3117 11.8937Z" fill="#EBE4DE"/>
<path d="M25.9632 17.8235C25.9632 18.0535 25.7641 18.2342 25.5108 18.2342C25.2574 18.2342 25.0583 18.0535 25.0583 17.8235C25.0583 17.5935 25.2574 17.4128 25.5108 17.4128C25.7641 17.4128 25.9632 17.5935 25.9632 17.8235Z" fill="#EBE4DE"/>
<path d="M23.701 23.2935C23.701 23.5234 23.5019 23.7041 23.2486 23.7041C22.9952 23.7041 22.7961 23.5234 22.7961 23.2935C22.7961 23.0635 22.9952 22.8828 23.2486 22.8828C23.5019 22.8828 23.701 23.0635 23.701 23.2935Z" fill="#EBE4DE"/>
<path d="M13.1322 15.5073C13.1322 15.7373 13.3313 15.918 13.5846 15.918C13.838 15.918 14.0371 15.7373 14.0371 15.5073C14.0371 15.2774 13.838 15.0967 13.5846 15.0967C13.3313 15.0967 13.1322 15.2774 13.1322 15.5073Z" fill="#EBE4DE"/>
<path d="M9.13269 5.55299C9.13269 5.78296 9.33176 5.96365 9.58512 5.96365C9.83849 5.96365 10.0376 5.78296 10.0376 5.55299C10.0376 5.32302 9.83849 5.14233 9.58512 5.14233C9.33176 5.14233 9.13269 5.32302 9.13269 5.55299Z" fill="#EBE4DE"/>
<path d="M8.75256 11.8936C8.75256 12.1235 8.95163 12.3042 9.205 12.3042C9.45836 12.3042 9.65743 12.1235 9.65743 11.8936C9.65743 11.6636 9.45836 11.4829 9.205 11.4829C8.95163 11.4829 8.75256 11.6636 8.75256 11.8936Z" fill="#EBE4DE"/>
<path d="M8.10107 17.8234C8.10107 18.0533 8.30015 18.234 8.55351 18.234C8.80687 18.234 9.00594 18.0533 9.00594 17.8234C9.00594 17.5934 8.80687 17.4127 8.55351 17.4127C8.30015 17.4127 8.10107 17.5934 8.10107 17.8234Z" fill="#EBE4DE"/>
<path d="M10.3633 23.2933C10.3633 23.5233 10.5624 23.704 10.8157 23.704C11.0691 23.704 11.2682 23.5233 11.2682 23.2933C11.2682 23.0634 11.0691 22.8827 10.8157 22.8827C10.5624 22.8827 10.3633 23.0634 10.3633 23.2933Z" fill="#EBE4DE"/>
<path d="M32.0983 22.5544C30.7591 23.7699 28.5331 23.7206 28.5331 23.7206C28.5331 23.7206 28.4789 21.7002 29.8181 20.4847C31.1573 19.2691 33.3832 19.3184 33.3832 19.3184C33.3832 19.3184 33.4375 21.3388 32.0983 22.5544Z" fill="#434129"/>
<path d="M30.2524 17.2814C30.2524 18.6612 28.9675 19.7618 28.9675 19.7618C28.9675 19.7618 27.6826 18.6448 27.6826 17.2814C27.6826 15.918 28.9675 14.801 28.9675 14.801C28.9675 14.801 30.2524 15.918 30.2524 17.2814Z" fill="#434129"/>
<path d="M32.6955 18.0371C31.9716 18.6942 30.741 18.6778 30.741 18.6778C30.741 18.6778 30.7048 17.5772 31.4468 16.9037C32.1707 16.2467 33.4013 16.2631 33.4013 16.2631C33.4013 16.2631 33.4375 17.3637 32.6955 18.0371Z" fill="#434129"/>
<path d="M1.80329 22.5543C3.14249 23.7698 5.36847 23.7205 5.36847 23.7205C5.36847 23.7205 5.42276 21.7001 4.08356 20.4845C2.74435 19.269 0.518372 19.3183 0.518372 19.3183C0.518372 19.3183 0.464081 21.3387 1.80329 22.5543Z" fill="#434129"/>
<path d="M3.6311 17.2814C3.6311 18.6612 4.91602 19.7618 4.91602 19.7618C4.91602 19.7618 6.20093 18.6448 6.20093 17.2814C6.20093 15.918 4.91602 14.801 4.91602 14.801C4.91602 14.801 3.6311 15.918 3.6311 17.2814Z" fill="#434129"/>
<path d="M1.20608 18.037C1.92998 18.6941 3.1606 18.6776 3.1606 18.6776C3.1606 18.6776 3.19679 17.5771 2.4548 16.9036C1.73091 16.2465 0.500286 16.263 0.500286 16.263C0.500286 16.263 0.46409 17.3635 1.20608 18.037Z" fill="#434129"/>
<path d="M46.8896 21.5L43.8176 10.3H45.2576L47.6736 19.9L50.4256 10.3H51.9136L54.5856 19.932L57.0336 10.3H58.4736L55.3376 21.5H53.8016L51.1296 12.236L48.3936 21.5H46.8896ZM60.134 21.5V13.468H61.478V21.5H60.134ZM60.806 11.74C60.5393 11.74 60.3153 11.6547 60.134 11.484C59.9633 11.3027 59.878 11.0787 59.878 10.812C59.878 10.5453 59.9633 10.332 60.134 10.172C60.3153 10.0013 60.5393 9.916 60.806 9.916C61.062 9.916 61.2807 10.0013 61.462 10.172C61.6433 10.332 61.734 10.5453 61.734 10.812C61.734 11.0787 61.6433 11.3027 61.462 11.484C61.2807 11.6547 61.062 11.74 60.806 11.74ZM63.8181 21.5V9.98H65.1621V21.5H63.8181ZM70.9646 21.692C70.1859 21.692 69.4979 21.5107 68.9006 21.148C68.3139 20.7747 67.8553 20.2733 67.5246 19.644C67.2046 19.004 67.0446 18.2787 67.0446 17.468C67.0446 16.6573 67.2046 15.9373 67.5246 15.308C67.8553 14.6787 68.3139 14.1827 68.9006 13.82C69.4979 13.4573 70.1913 13.276 70.9806 13.276C71.6313 13.276 72.2073 13.4093 72.7086 13.676C73.2099 13.9427 73.5939 14.316 73.8606 14.796V9.98H75.2046V21.5H73.9886L73.8606 20.188C73.6899 20.444 73.4713 20.6893 73.2046 20.924C72.9486 21.148 72.6339 21.3347 72.2606 21.484C71.8873 21.6227 71.4553 21.692 70.9646 21.692ZM71.1086 20.524C71.6419 20.524 72.1113 20.4013 72.5166 20.156C72.9326 19.9 73.2526 19.5427 73.4766 19.084C73.7006 18.6253 73.8126 18.092 73.8126 17.484C73.8126 16.876 73.7006 16.3427 73.4766 15.884C73.2526 15.4253 72.9326 15.0733 72.5166 14.828C72.1113 14.572 71.6419 14.444 71.1086 14.444C70.5966 14.444 70.1326 14.572 69.7166 14.828C69.3113 15.0733 68.9913 15.4253 68.7566 15.884C68.5326 16.3427 68.4206 16.876 68.4206 17.484C68.4206 18.092 68.5326 18.6253 68.7566 19.084C68.9913 19.5427 69.3113 19.9 69.7166 20.156C70.1326 20.4013 70.5966 20.524 71.1086 20.524ZM77.5079 21.5V10.3H84.3239V11.404H78.8519V15.34H83.5079V16.428H78.8519V21.5H77.5079ZM89.1826 21.692C88.4359 21.692 87.7693 21.516 87.1826 21.164C86.5959 20.812 86.1319 20.3213 85.7906 19.692C85.4599 19.0627 85.2946 18.3267 85.2946 17.484C85.2946 16.6307 85.4599 15.8947 85.7906 15.276C86.1213 14.6467 86.5799 14.156 87.1666 13.804C87.7639 13.452 88.4466 13.276 89.2146 13.276C90.0039 13.276 90.6759 13.452 91.2306 13.804C91.7853 14.156 92.2066 14.6147 92.4946 15.18C92.7933 15.7453 92.9426 16.3693 92.9426 17.052C92.9426 17.1587 92.9426 17.2707 92.9426 17.388C92.9426 17.5053 92.9373 17.6387 92.9266 17.788H86.3026V16.748H91.6146C91.5826 16.012 91.3373 15.4413 90.8786 15.036C90.4306 14.62 89.8653 14.412 89.1826 14.412C88.7346 14.412 88.3133 14.5187 87.9186 14.732C87.5239 14.9347 87.2039 15.2333 86.9586 15.628C86.7239 16.0227 86.6066 16.5187 86.6066 17.116V17.564C86.6066 18.2253 86.7293 18.78 86.9746 19.228C87.2199 19.6653 87.5346 19.996 87.9186 20.22C88.3133 20.444 88.7346 20.556 89.1826 20.556C89.7479 20.556 90.2119 20.4333 90.5746 20.188C90.9479 19.932 91.2199 19.5853 91.3906 19.148H92.7186C92.5799 19.6387 92.3506 20.076 92.0306 20.46C91.7106 20.8333 91.3106 21.132 90.8306 21.356C90.3613 21.58 89.8119 21.692 89.1826 21.692ZM94.7244 21.5V13.468H95.9404L96.0364 14.62C96.2924 14.1933 96.6337 13.8627 97.0604 13.628C97.487 13.3933 97.9617 13.276 98.4844 13.276C98.9004 13.276 99.279 13.3347 99.6204 13.452C99.9617 13.5587 100.26 13.7293 100.516 13.964C100.772 14.188 100.98 14.476 101.14 14.828C101.418 14.3373 101.796 13.9587 102.276 13.692C102.767 13.4147 103.29 13.276 103.844 13.276C104.463 13.276 105.002 13.404 105.46 13.66C105.93 13.9053 106.292 14.284 106.548 14.796C106.804 15.2973 106.932 15.9373 106.932 16.716V21.5H105.604V16.86C105.604 16.0493 105.439 15.4413 105.108 15.036C104.778 14.6307 104.308 14.428 103.7 14.428C103.284 14.428 102.906 14.54 102.564 14.764C102.234 14.9773 101.972 15.292 101.78 15.708C101.599 16.124 101.508 16.636 101.508 17.244V21.5H100.164V16.86C100.164 16.0493 99.999 15.4413 99.6684 15.036C99.3377 14.6307 98.8684 14.428 98.2604 14.428C97.855 14.428 97.4817 14.54 97.1404 14.764C96.8097 14.9773 96.5484 15.292 96.3564 15.708C96.1644 16.124 96.0684 16.636 96.0684 17.244V21.5H94.7244Z" fill="white"/>
</g>
<defs>
<clipPath id="clip0_18_7">
<rect width="107.902" height="31.8999" fill="white" transform="translate(0.5 0.0500488)"/>
</clipPath>
</defs>
</svg>
